<?xml version="1.0" encoding="utf-8"?>
<!-- Generator: Adobe Illustrator 22.0.0, SVG Export Plug-In . SVG Version: 6.00 Build 0)  -->
<svg version="1.1" id="Layer_1" xmlns="http://www.w3.org/2000/svg" xmlns:xlink="http://www.w3.org/1999/xlink" x="0px" y="0px"
	 viewBox="0 0 75.7 85.7" style="enable-background:new 0 0 75.7 85.7;" xml:space="preserve">
<path d="M46.7,5.3h-3c0-2.8-1.4-5-3.2-5h-7.6c-1.8,0-3.2,2.3-3.2,5h-4c-6.6,0-12,5.4-12,12v56c0,6.6,5.4,12,12,12h21
	c6.6,0,12-5.4,12-12v-56C58.7,10.7,53.3,5.3,46.7,5.3z M50.7,43.1c-2.5,1-7,2.2-13.6,2.2c-6.1,0-11.1-1-14.4-2V19.9
	c0-2.8,2.3-5.1,5.1-5.1h17.8c2.8,0,5.1,2.3,5.1,5.1V43.1z"/>
</svg>
